M48
;Layer_Color=9474304
;FILE_FORMAT=2:3
INCH
;TYPE=PLATED
T1F00S00C0.010
T2F00S00C0.024
T3F00S00C0.030
T4F00S00C0.035
T5F00S00C0.039
T6F00S00C0.047
%
T01
X02845Y01013
X02715Y01320
X02607Y01352
X02650Y01450
X02642Y01500
T02
X04574Y01027
X04476Y01125
X04574Y01223
X04560Y01488
X04462Y01587
X04560Y01685
T03
X00395Y01045
X00795
X00985
X01385
X01575Y01050
X01975
X02145Y01055
X02545
X02767Y01110
X02963
X03927Y00985
X04123
X04102Y01255
X04298
X03923Y01740
X03727
X03488Y01825
X03292
X02385Y01735
X01985
X01715Y01715
X01315
X01140
X00740
X00565Y01710
X00165
T04
X03190Y01040
Y01140
Y01240
Y01340
Y01440
Y01540
X03490
Y01440
Y01340
Y01240
Y01140
Y01040
X03625Y01150
Y01250
Y01350
Y01450
X03925
Y01350
Y01250
Y01150
X05003Y01205
X05200
X03490Y01640
X03190
T05
X00160Y01395
X00260
X00490
X00590
X00810Y01385
X00910
X01145
X01245
X01460Y01395
X01560
X01765
X01865
X02070
X02170
X02445Y01400
X02545
X05002Y01665
X05100
X05198
T06
X05540Y01410
X07300
X07635Y01400
X09395
X09700Y01405
X11460
M30
